{
  "accessors": [
    {
      "bufferView": 0,
      "componentType": 5123,
      "count": 386709,
      "max": [
        386708.0
      ],
      "min": [
        0.0
      ],
      "name": "buffer-0-accessor-indices-buffer-0-mesh-0",
      "type": "SCALAR"
    },
    {
      "bufferView": 1,
      "componentType": 5126,
      "count": 64366,
      "max": [
        0.0006177249809049747,
        0.00040628755232319236,
        -0.0002980498829856515
      ],
      "min": [
        -0.0006096355306605498,
        -0.0005709521065000445,
        -0.0009971534933096596
      ],
      "name": "buffer-0-accessor-position-buffer-0-mesh-0",
      "type": "VEC3"
    },
    {
      "bufferView": 1,
      "byteOffset": 772392,
      "componentType": 5126,
      "count": 64366,
      "name": "buffer-0-accessor-normal-buffer-0-mesh-0",
      "type": "VEC3"
    },
    {
      "bufferView": 1,
      "byteOffset": 1544784,
      "componentType": 5126,
      "count": 64366,
      "name": "buffer-0-accessor-color-buffer-0-mesh-0",
      "type": "VEC3"
    }
  ],
  "asset": {
    "generator": "Open3D",
    "version": "2.0"
  },
  "bufferViews": [
    {
      "buffer": 0,
      "byteLength": 773418,
      "name": "buffer-0-bufferview-ushort",
      "target": 34963
    },
    {
      "buffer": 0,
      "byteLength": 2317176,
      "byteOffset": 773418,
      "byteStride": 12,
      "name": "buffer-0-bufferview-vec3",
      "target": 34962
    }
  ],
  "buffers": [
    {
      "byteLength": 3090594,
      "uri": "data:application/octet-stream;base64,"
    }
  ],
  "meshes": [
    {
      "primitives": [
        {
          "attributes": {
            "COLOR_0": 3,
            "NORMAL": 2,
            "POSITION": 1
          },
          "indices": 0,
          "mode": 4
        }
      ]
    }
  ],
  "nodes": [
    {
      "mesh": 0
    }
  ],
  "scene": 0,
  "scenes": [
    {
      "nodes": [
        0
      ]
    }
  ]
}
